<svg xmlns="http://www.w3.org/2000/svg" viewBox="0 0 320 80" fill="none">
  <defs>
    <linearGradient id="logoGrad" x1="0" y1="0" x2="70" y2="50" gradientUnits="userSpaceOnUse">
      <stop offset="0%" stop-color="#00d2d3"/>
      <stop offset="50%" stop-color="#00b4d8"/>
      <stop offset="100%" stop-color="#0096c7"/>
    </linearGradient>
  </defs>
  <!-- Infinity/brain loop icon -->
  <g transform="translate(5, 8)">
    <!-- Left loop -->
    <path d="M32 32c0-14.4 11.6-26 26-26s16 8 16 16c0 12-10 18-16 22c-6-4-16-10-16-22c0-8 5.4-10 10-6" 
          stroke="url(#logoGrad)" stroke-width="5.5" stroke-linecap="round" fill="none"/>
    <!-- Right loop -->  
    <path d="M32 32c0 14.4-11.6 26-26 26S-4 50-4 42c0-12 10-18 16-22c6 4 16 10 16 22c0 8-5.4 10-10 6"
          stroke="url(#logoGrad)" stroke-width="5.5" stroke-linecap="round" fill="none"/>
    <!-- Inner detail -->
    <circle cx="32" cy="32" r="3" fill="url(#logoGrad)"/>
  </g>
  <!-- Text -->
  <text x="80" y="55" font-family="Inter, system-ui, -apple-system, sans-serif" font-size="42" font-weight="700" fill="white" letter-spacing="-1">
    FinMind
  </text>
</svg>
